<svg width="16" height="16" viewBox="0 0 16 16" fill="none" xmlns="http://www.w3.org/2000/svg">
<g filter="url(#filter0_ii_6457_100170)">
<circle cx="8" cy="8" r="8" fill="url(#paint0_radial_6457_100170)"/>
</g>
<g filter="url(#filter1_i_6457_100170)">
<circle cx="8" cy="8" r="8" fill="url(#paint1_radial_6457_100170)"/>
</g>
<path fill-rule="evenodd" clip-rule="evenodd" d="M2.52567 4.84188C2.613 4.57991 2.89616 4.43833 3.15813 4.52566L6.15813 5.52566C6.4201 5.61298 6.56168 5.89614 6.47436 6.15811C6.38703 6.42008 6.10387 6.56166 5.8419 6.47434L2.8419 5.47434C2.57993 5.38702 2.43835 5.10386 2.52567 4.84188Z" fill="black"/>
<path fill-rule="evenodd" clip-rule="evenodd" d="M4.5 8C4.5 8.27614 4.72386 8.5 5 8.5H6C6.27614 8.5 6.5 8.27614 6.5 8C6.5 7.72386 6.27614 7.5 6 7.5H5C4.72386 7.5 4.5 7.72386 4.5 8Z" fill="black"/>
<path fill-rule="evenodd" clip-rule="evenodd" d="M13.4743 4.84188C13.387 4.57991 13.1038 4.43833 12.8419 4.52566L9.84187 5.52566C9.5799 5.61298 9.43832 5.89614 9.52564 6.15811C9.61297 6.42008 9.89613 6.56166 10.1581 6.47434L13.1581 5.47434C13.4201 5.38702 13.5617 5.10386 13.4743 4.84188Z" fill="black"/>
<path fill-rule="evenodd" clip-rule="evenodd" d="M11.5 8C11.5 8.27614 11.2761 8.5 11 8.5H10.7719H10C9.72386 8.5 9.5 8.27614 9.5 8C9.5 7.72386 9.72386 7.5 10 7.5H11C11.2761 7.5 11.5 7.72386 11.5 8Z" fill="black"/>
<path fill-rule="evenodd" clip-rule="evenodd" d="M7.91529 12.5026C7.18348 12.5354 6.62192 12.8624 6.45012 13.2177C6.3299 13.4663 6.03091 13.5703 5.78231 13.4501C5.53371 13.3299 5.42964 13.0309 5.54987 12.7823C5.9495 11.956 6.95936 11.5445 7.87041 11.5036C8.80371 11.4616 9.87817 11.794 10.4324 12.749C10.5711 12.9878 10.4898 13.2938 10.251 13.4324C10.0121 13.5711 9.70616 13.4898 9.56755 13.251C9.26467 12.7291 8.62485 12.4707 7.91529 12.5026Z" fill="#D13D22"/>
<defs>
<filter id="filter0_ii_6457_100170" x="-1" y="-1" width="17" height="18" filterUnits="userSpaceOnUse" color-interpolation-filters="sRGB">
<feFlood flood-opacity="0" result="BackgroundImageFix"/>
<feBlend mode="normal" in="SourceGraphic" in2="BackgroundImageFix" result="shape"/>
<feColorMatrix in="SourceAlpha" type="matrix" values="0 0 0 0 0 0 0 0 0 0 0 0 0 0 0 0 0 0 127 0" result="hardAlpha"/>
<feOffset dy="-1"/>
<feGaussianBlur stdDeviation="1"/>
<feComposite in2="hardAlpha" operator="arithmetic" k2="-1" k3="1"/>
<feColorMatrix type="matrix" values="0 0 0 0 0 0 0 0 0 0 0 0 0 0 0 0 0 0 0.15 0"/>
<feBlend mode="normal" in2="shape" result="effect1_innerShadow_6457_100170"/>
<feColorMatrix in="SourceAlpha" type="matrix" values="0 0 0 0 0 0 0 0 0 0 0 0 0 0 0 0 0 0 127 0" result="hardAlpha"/>
<feOffset dx="-1" dy="1"/>
<feGaussianBlur stdDeviation="1"/>
<feComposite in2="hardAlpha" operator="arithmetic" k2="-1" k3="1"/>
<feColorMatrix type="matrix" values="0 0 0 0 1 0 0 0 0 1 0 0 0 0 1 0 0 0 0.25 0"/>
<feBlend mode="normal" in2="effect1_innerShadow_6457_100170" result="effect2_innerShadow_6457_100170"/>
</filter>
<filter id="filter1_i_6457_100170" x="-1" y="0" width="17" height="17" filterUnits="userSpaceOnUse" color-interpolation-filters="sRGB">
<feFlood flood-opacity="0" result="BackgroundImageFix"/>
<feBlend mode="normal" in="SourceGraphic" in2="BackgroundImageFix" result="shape"/>
<feColorMatrix in="SourceAlpha" type="matrix" values="0 0 0 0 0 0 0 0 0 0 0 0 0 0 0 0 0 0 127 0" result="hardAlpha"/>
<feOffset dx="-1" dy="1"/>
<feGaussianBlur stdDeviation="1"/>
<feComposite in2="hardAlpha" operator="arithmetic" k2="-1" k3="1"/>
<feColorMatrix type="matrix" values="0 0 0 0 1 0 0 0 0 1 0 0 0 0 1 0 0 0 0.25 0"/>
<feBlend mode="normal" in2="shape" result="effect1_innerShadow_6457_100170"/>
</filter>
<radialGradient id="paint0_radial_6457_100170" cx="0" cy="0" r="1" gradientUnits="userSpaceOnUse" gradientTransform="translate(8 5) rotate(90) scale(18.5 42.1508)">
<stop stop-color="#FDE05D"/>
<stop offset="0.32078" stop-color="#FEC455"/>
<stop offset="1" stop-color="#FF8845"/>
</radialGradient>
<radialGradient id="paint1_radial_6457_100170" cx="0" cy="0" r="1" gradientUnits="userSpaceOnUse" gradientTransform="translate(8) rotate(90) scale(20 45.5685)">
<stop stop-color="#5D77FD"/>
<stop offset="0.463542" stop-color="#55C1FE" stop-opacity="0"/>
<stop offset="1" stop-color="#FFFFE7" stop-opacity="0"/>
</radialGradient>
</defs>
</svg>
