<svg width="16" height="16" viewBox="0 0 16 16" fill="none" xmlns="http://www.w3.org/2000/svg">
<g filter="url(#filter0_ii_6457_100161)">
<circle cx="8" cy="8" r="8" fill="url(#paint0_radial_6457_100161)"/>
</g>
<path fill-rule="evenodd" clip-rule="evenodd" d="M5.05276 6.77634C4.73703 7.40789 3.76297 7.40789 3.44721 6.77633C3.32372 6.52934 3.02339 6.42922 2.77639 6.5527C2.5294 6.67619 2.42928 6.97653 2.55277 7.22352C3.23701 8.5921 5.26294 8.59223 5.94721 7.22351C6.07069 6.97651 5.97057 6.67618 5.72357 6.5527C5.47657 6.42922 5.17624 6.52935 5.05276 6.77634Z" fill="black"/>
<path fill-rule="evenodd" clip-rule="evenodd" d="M10.4851 10.8787C10.4181 10.6108 10.1466 10.448 9.87874 10.5149L5.87874 11.5149C5.61084 11.5819 5.44796 11.8534 5.51493 12.1213C5.58191 12.3892 5.85337 12.552 6.12127 12.4851L10.1213 11.4851C10.3892 11.4181 10.552 11.1466 10.4851 10.8787Z" fill="#E64325"/>
<path fill-rule="evenodd" clip-rule="evenodd" d="M12.0528 6.77634C11.737 7.40789 10.763 7.40789 10.4472 6.77633C10.3237 6.52934 10.0234 6.42922 9.77639 6.5527C9.5294 6.67619 9.42928 6.97653 9.55277 7.22352C10.237 8.5921 12.2629 8.59223 12.9472 7.22351C13.0707 6.97651 12.9706 6.67618 12.7236 6.5527C12.4766 6.42922 12.1762 6.52935 12.0528 6.77634Z" fill="black"/>
<defs>
<filter id="filter0_ii_6457_100161" x="-1" y="-1" width="17" height="18" filterUnits="userSpaceOnUse" color-interpolation-filters="sRGB">
<feFlood flood-opacity="0" result="BackgroundImageFix"/>
<feBlend mode="normal" in="SourceGraphic" in2="BackgroundImageFix" result="shape"/>
<feColorMatrix in="SourceAlpha" type="matrix" values="0 0 0 0 0 0 0 0 0 0 0 0 0 0 0 0 0 0 127 0" result="hardAlpha"/>
<feOffset dy="-1"/>
<feGaussianBlur stdDeviation="1"/>
<feComposite in2="hardAlpha" operator="arithmetic" k2="-1" k3="1"/>
<feColorMatrix type="matrix" values="0 0 0 0 0 0 0 0 0 0 0 0 0 0 0 0 0 0 0.15 0"/>
<feBlend mode="normal" in2="shape" result="effect1_innerShadow_6457_100161"/>
<feColorMatrix in="SourceAlpha" type="matrix" values="0 0 0 0 0 0 0 0 0 0 0 0 0 0 0 0 0 0 127 0" result="hardAlpha"/>
<feOffset dx="-1" dy="1"/>
<feGaussianBlur stdDeviation="1"/>
<feComposite in2="hardAlpha" operator="arithmetic" k2="-1" k3="1"/>
<feColorMatrix type="matrix" values="0 0 0 0 1 0 0 0 0 1 0 0 0 0 1 0 0 0 0.25 0"/>
<feBlend mode="normal" in2="effect1_innerShadow_6457_100161" result="effect2_innerShadow_6457_100161"/>
</filter>
<radialGradient id="paint0_radial_6457_100161" cx="0" cy="0" r="1" gradientUnits="userSpaceOnUse" gradientTransform="translate(8 5) rotate(90) scale(18.5 42.1508)">
<stop stop-color="#FDE05D"/>
<stop offset="1" stop-color="#FF8845"/>
</radialGradient>
</defs>
</svg>
