<svg width="16" height="16" viewBox="0 0 16 16" fill="none" xmlns="http://www.w3.org/2000/svg">
<g filter="url(#filter0_ii_6457_100143)">
<circle cx="8" cy="8" r="8" fill="url(#paint0_radial_6457_100143)"/>
</g>
<path fill-rule="evenodd" clip-rule="evenodd" d="M5 7.84885C5.41421 7.84885 5.75 7.51306 5.75 7.09885V7.00012C5.75 6.58591 5.41421 6.25012 5 6.25012C4.58579 6.25012 4.25 6.58591 4.25 7.00012V7.09885C4.25 7.51306 4.58579 7.84885 5 7.84885Z" fill="black"/>
<path fill-rule="evenodd" clip-rule="evenodd" d="M10.4472 11.7764C10.3237 11.5294 10.0234 11.4293 9.77641 11.5528C8.65814 12.1119 7.34189 12.1119 6.22362 11.5528C5.97663 11.4293 5.67629 11.5294 5.5528 11.7764C5.4293 12.0234 5.52942 12.3237 5.77641 12.4472C7.1762 13.1471 8.82383 13.1471 10.2236 12.4472C10.4706 12.3237 10.5707 12.0234 10.4472 11.7764Z" fill="#E64325"/>
<path fill-rule="evenodd" clip-rule="evenodd" d="M11 7.84885C11.4142 7.84885 11.75 7.51306 11.75 7.09885V7.00012C11.75 6.58591 11.4142 6.25012 11 6.25012C10.5858 6.25012 10.25 6.58591 10.25 7.00012V7.09885C10.25 7.51306 10.5858 7.84885 11 7.84885Z" fill="black"/>
<defs>
<filter id="filter0_ii_6457_100143" x="-1" y="-1" width="17" height="18" filterUnits="userSpaceOnUse" color-interpolation-filters="sRGB">
<feFlood flood-opacity="0" result="BackgroundImageFix"/>
<feBlend mode="normal" in="SourceGraphic" in2="BackgroundImageFix" result="shape"/>
<feColorMatrix in="SourceAlpha" type="matrix" values="0 0 0 0 0 0 0 0 0 0 0 0 0 0 0 0 0 0 127 0" result="hardAlpha"/>
<feOffset dy="-1"/>
<feGaussianBlur stdDeviation="1"/>
<feComposite in2="hardAlpha" operator="arithmetic" k2="-1" k3="1"/>
<feColorMatrix type="matrix" values="0 0 0 0 0 0 0 0 0 0 0 0 0 0 0 0 0 0 0.15 0"/>
<feBlend mode="normal" in2="shape" result="effect1_innerShadow_6457_100143"/>
<feColorMatrix in="SourceAlpha" type="matrix" values="0 0 0 0 0 0 0 0 0 0 0 0 0 0 0 0 0 0 127 0" result="hardAlpha"/>
<feOffset dx="-1" dy="1"/>
<feGaussianBlur stdDeviation="1"/>
<feComposite in2="hardAlpha" operator="arithmetic" k2="-1" k3="1"/>
<feColorMatrix type="matrix" values="0 0 0 0 1 0 0 0 0 1 0 0 0 0 1 0 0 0 0.25 0"/>
<feBlend mode="normal" in2="effect1_innerShadow_6457_100143" result="effect2_innerShadow_6457_100143"/>
</filter>
<radialGradient id="paint0_radial_6457_100143" cx="0" cy="0" r="1" gradientUnits="userSpaceOnUse" gradientTransform="translate(8 5) rotate(90) scale(18.5 42.1508)">
<stop stop-color="#FDE05D"/>
<stop offset="1" stop-color="#FF8845"/>
</radialGradient>
</defs>
</svg>
