<svg width="145" height="42" viewBox="0 0 145 42" fill="none" xmlns="http://www.w3.org/2000/svg">
<path d="M89.2991 18.0005L83.2712 12.0454H83.2296H83.1152C82.7403 11.9713 82.3566 11.9521 81.9762 11.9882C81.2167 12.0458 80.4862 12.3043 79.8595 12.7372C79.7618 12.7985 79.6695 12.8681 79.5838 12.9452C79.511 12.9972 79.4538 13.0492 79.3914 13.1012L78.4968 13.975C80.4641 16.0153 81.5767 18.7307 81.6067 21.5648C81.6367 24.399 80.5818 27.1373 78.6581 29.2188L79.4538 30.0197L79.5838 30.1185V30.1653L79.6306 30.2226L79.693 30.3006L79.7398 30.3682C79.7641 30.3999 79.7867 30.4329 79.8075 30.467L79.8647 30.5502L79.9375 30.6698L79.9947 30.7686L80.0727 30.9091L80.1299 31.0183L80.2079 31.1899C80.2284 31.2284 80.2458 31.2684 80.2599 31.3095C80.2911 31.372 80.3171 31.4448 80.3483 31.5176C80.3644 31.5549 80.3783 31.5931 80.39 31.632C80.4316 31.7464 80.4732 31.866 80.5096 31.9909C80.546 32.1157 80.5876 32.2769 80.6188 32.4121C80.6188 32.4589 80.6188 32.5057 80.6188 32.5526C80.6188 32.5994 80.65 32.7294 80.6604 32.8178C80.6708 32.9062 80.6604 32.9218 80.6604 32.9738C80.6604 33.0258 80.6604 33.1246 80.6604 33.1975C80.6604 33.2703 80.6604 33.3015 80.6604 33.3535C80.6604 33.4055 80.6604 33.4679 80.6604 33.5251L85.7052 28.4282L89.7775 24.3559C90.3738 23.7586 90.7575 22.9821 90.8697 22.1456C90.9026 21.9373 90.9217 21.7271 90.9269 21.5163C91.0413 19.9612 90.2352 18.9626 89.2991 18.0005Z" fill="white"/>
<path d="M62.8002 13.3096C64.8915 11.4547 67.5943 10.4378 70.3896 10.4542C73.1849 10.4705 75.8756 11.5189 77.9451 13.398L78.8605 12.5034L79.0061 12.3786L79.0841 12.3162L79.2454 12.1862C79.3026 12.1394 79.365 12.0978 79.4274 12.0562C79.8853 11.7424 80.3912 11.5053 80.9252 11.354C81.2486 11.2653 81.5793 11.2061 81.9134 11.1772H82.3763L75.1523 3.97918C74.6921 3.62181 74.2593 3.23066 73.8572 2.80898C73.566 2.51773 73.2903 2.23689 72.9887 1.98204C72.2575 1.29535 71.2925 0.912345 70.2894 0.910663C69.7823 0.909077 69.2799 1.008 68.8113 1.20171C68.3426 1.39542 67.917 1.68009 67.559 2.03925L67.4601 2.13807C67.2677 2.2993 67.0805 2.46573 66.8933 2.65816L66.8568 2.68937L60.8654 8.63398C60.7511 9.27281 60.776 9.92878 60.9385 10.5571C61.101 11.1854 61.3971 11.7713 61.8068 12.2746L62.8002 13.3096Z" fill="white"/>
<path d="M79.9689 33.255C79.9689 33.1926 79.9689 33.1302 79.9689 33.0626C79.9715 33.0158 79.9715 32.9689 79.9689 32.9222C79.9689 32.8494 79.9429 32.7713 79.9325 32.6933C79.93 32.6518 79.93 32.6101 79.9325 32.5685C79.9325 32.4489 79.8753 32.3241 79.8389 32.1992C79.8025 32.0744 79.7609 31.96 79.7193 31.8508C79.7077 31.8153 79.6938 31.7805 79.6777 31.7468C79.654 31.6776 79.6262 31.6098 79.5945 31.5439C79.5785 31.5043 79.5594 31.466 79.5373 31.4295C79.5373 31.3775 79.4904 31.3255 79.4696 31.2787C79.4488 31.2319 79.428 31.2059 79.4072 31.1695L79.3448 31.055C79.3448 31.0186 79.3032 30.9926 79.2824 30.9614C79.2664 30.9301 79.2472 30.9005 79.2252 30.873C79.2252 30.8418 79.1888 30.821 79.1732 30.795L79.1212 30.7274L79.0796 30.6702L79.038 30.6182L79.0068 30.5818L78.9756 30.5506L78.9236 30.4985L78.1642 29.7288C76.0724 31.7023 73.3097 32.8085 70.4339 32.824C67.5582 32.8394 64.7837 31.763 62.6708 29.812L61.8439 30.6338C61.641 30.8324 61.4159 31.0069 61.173 31.1539L61.1261 31.1851L60.9909 31.2631L60.9233 31.3047L60.7777 31.3775L60.6945 31.4243L60.554 31.4867L60.4396 31.5335L60.294 31.5907L60.164 31.6428L60.0236 31.6896L59.8675 31.7364L59.7219 31.7728L59.5503 31.8196L59.3995 31.8456C59.337 31.8456 59.2746 31.8456 59.207 31.8768H59.0562H58.8482H58.6713H58.4685L65.5261 38.9916C65.6821 39.1476 65.8537 39.3297 66.0462 39.5117C66.9355 40.4791 68.1525 41.8001 69.9988 41.9509C70.2003 41.981 70.4037 41.9967 70.6074 41.9977C71.1145 41.9993 71.6169 41.9004 72.0855 41.7067C72.5542 41.513 72.9798 41.2283 73.3378 40.8691L78.0758 36.1259L79.9637 34.3004C79.9637 34.3004 79.9637 34.2692 79.9637 34.2536V34.1912C79.9612 34.1583 79.9612 34.1253 79.9637 34.0924C79.9662 34.0629 79.9662 34.0334 79.9637 34.004V33.8791C79.9612 33.8428 79.9612 33.8063 79.9637 33.7699C79.9611 33.7214 79.9611 33.6728 79.9637 33.6243C79.9637 33.5827 79.9637 33.5411 79.9637 33.4943C79.9637 33.4475 79.9637 33.385 79.9637 33.3278L79.9689 33.255Z" fill="white"/>
<path d="M62.0725 29.2653C60.0971 27.1731 59.0105 24.396 59.0416 21.5188C59.0726 18.6415 60.2189 15.8885 62.239 13.8394L61.2352 12.7993L61.2092 12.7681L61.1676 12.7213L61.1104 12.6796L61.0636 12.6172C61.0486 12.6021 61.0362 12.5845 61.0272 12.5652L60.9647 12.482L60.9231 12.4248L60.8555 12.3208L60.8139 12.2532L60.7203 12.0972C60.7186 12.0816 60.7186 12.0659 60.7203 12.0503C60.6787 11.9827 60.6371 11.9047 60.5955 11.8267C60.5865 11.801 60.5743 11.7765 60.5591 11.7539L60.4759 11.5771L60.4343 11.473C60.4069 11.4154 60.3826 11.3564 60.3614 11.2962C60.3454 11.2589 60.3315 11.2207 60.3198 11.1818C60.3198 11.1194 60.273 11.057 60.2522 10.9946C60.2314 10.9321 60.2262 10.9113 60.2158 10.8645C60.2054 10.8177 60.1794 10.7293 60.1586 10.6565C60.1557 10.6167 60.1557 10.5767 60.1586 10.5369C60.1586 10.4485 60.1222 10.3601 60.1066 10.2716V10.1832C60.1066 10.0636 60.0754 9.93878 60.065 9.81396V9.72555C60.065 9.64234 60.065 9.55912 60.065 9.4707L52.7577 16.6323C52.6017 16.7883 52.4197 16.9548 52.2377 17.1524C51.1975 18.0938 49.8192 19.3784 49.7828 21.3807C49.7568 22.941 50.5734 23.9396 51.4887 24.9121L57.5842 31.0856C57.6769 31.1062 57.7706 31.1218 57.865 31.1324C58.0512 31.1575 58.2389 31.1696 58.4267 31.1688C59.4701 31.1716 60.4784 30.7924 61.2612 30.1026L62.0725 29.2653Z" fill="white"/>
<path fill-rule="evenodd" clip-rule="evenodd" d="M70.3524 15.0047C68.8078 13.5641 66.0617 13.6005 66.0617 13.6005C67.3446 12.7476 68.8435 12.2768 70.3836 12.243C71.8811 12.2577 73.3403 12.7176 74.5756 13.5641C73.0454 13.5525 71.5565 14.0604 70.3524 15.0047ZM65.3906 13.9645C67.027 13.7584 68.6817 14.166 70.035 15.1087C67.5038 15.4412 65.0709 16.3024 62.8942 17.6363C63.3269 16.1838 64.199 14.9011 65.3906 13.9645ZM70.654 15.1245C71.9875 14.1655 73.6295 13.7355 75.2619 13.9179C76.4646 14.898 77.366 16.1979 77.8624 17.6677C75.6363 16.3842 73.1926 15.5221 70.654 15.1245ZM70.3005 15.3584C67.648 15.714 65.098 16.6153 62.8113 18.0057C62.5772 18.401 62.3588 20.6374 62.3588 20.6374C64.7408 19.9508 70.3161 17.7353 70.3161 17.7353C72.2457 18.5258 78.4607 20.705 78.4607 20.705C78.3492 19.754 78.124 18.8198 77.7898 17.9225C75.4613 16.6392 72.9269 15.7716 70.3005 15.3584ZM68.8752 18.5572C69.3449 18.4172 69.8038 18.2434 70.2483 18.0371C70.7104 18.2439 71.1866 18.4177 71.6733 18.5572L70.3991 19.4414L68.8752 18.5572ZM62.2755 19.2644C62.1399 19.6916 62.0715 20.1372 62.0726 20.5854L61.1885 17.907L62.2755 19.2644ZM78.4085 19.3267C78.5362 19.7187 78.6216 20.1232 78.6633 20.5333L79.5683 17.9329L78.4085 19.3267ZM66.8611 23.3487C66.9439 23.3958 67.0377 23.4203 67.133 23.4199C67.2264 23.4222 67.3187 23.3992 67.4001 23.3534C67.4816 23.3077 67.5492 23.2408 67.5959 23.1599C67.5264 23.4224 67.3638 23.6507 67.1383 23.8021C66.9128 23.9535 66.64 24.0177 66.3707 23.9827C66.1014 23.9477 65.854 23.8158 65.6748 23.6118C65.4956 23.4077 65.3967 23.1454 65.3967 22.8738C65.3967 22.6023 65.4956 22.34 65.6748 22.1359C65.854 21.9319 66.1014 21.8 66.3707 21.765C66.64 21.73 66.9128 21.7941 67.1383 21.9455C67.3638 22.097 67.5264 22.3252 67.5959 22.5878C67.546 22.5066 67.4757 22.4399 67.392 22.3943C67.3083 22.3487 67.2141 22.3258 67.1188 22.3279C67.0235 22.33 66.9304 22.357 66.8488 22.4062C66.7671 22.4554 66.6998 22.5251 66.6535 22.6084C66.6072 22.6917 66.5834 22.7857 66.5847 22.881C66.5859 22.9763 66.6121 23.0696 66.6606 23.1517C66.7091 23.2337 66.7782 23.3017 66.8611 23.3487ZM74.378 21.7557C74.1325 21.7554 73.8938 21.8364 73.699 21.986C73.5043 22.1356 73.3645 22.3453 73.3014 22.5826C73.3646 22.4824 73.4585 22.4055 73.5692 22.3634C73.6799 22.3213 73.8012 22.3163 73.915 22.3492C74.0287 22.3821 74.1287 22.451 74.1998 22.5456C74.271 22.6403 74.3095 22.7555 74.3095 22.8738C74.3095 22.9922 74.271 23.1074 74.1998 23.2021C74.1287 23.2967 74.0287 23.3656 73.915 23.3985C73.8012 23.4313 73.6799 23.4264 73.5692 23.3843C73.4585 23.3422 73.3646 23.2652 73.3014 23.1651C73.3558 23.3666 73.4655 23.5489 73.6181 23.6914C73.7708 23.8338 73.9602 23.9307 74.165 23.971C74.3698 24.0113 74.5819 23.9935 74.7771 23.9195C74.9723 23.8456 75.1429 23.7185 75.2696 23.5526C75.3964 23.3867 75.4741 23.1887 75.4941 22.9809C75.5141 22.7731 75.4755 22.5638 75.3827 22.3768C75.2899 22.1898 75.1466 22.0325 74.9691 21.9228C74.7915 21.813 74.5868 21.7551 74.378 21.7557ZM74.7628 25.7915C75.5481 25.8383 75.6729 26.7225 75.6729 26.7225C75.6729 26.7225 75.8601 28.1735 73.8578 28.5168C71.8555 28.8601 70.9401 28.5428 70.4876 28.2672C70.0352 28.5428 69.1666 28.8653 67.1175 28.5168C65.0683 28.1683 65.2972 26.7225 65.2972 26.7225C65.2972 26.7225 65.4272 25.8383 66.2125 25.7915C66.2813 25.7781 66.3521 25.7787 66.4206 25.7933C66.4892 25.808 66.554 25.8363 66.6114 25.8766C66.6687 25.9169 66.7173 25.9684 66.7542 26.028C66.7911 26.0875 66.8156 26.1539 66.8262 26.2232C66.76 26.165 66.6822 26.1214 66.598 26.0954C66.5137 26.0694 66.4249 26.0616 66.3373 26.0724C66.2603 26.0863 66.1874 26.1175 66.1241 26.1636C66.0608 26.2096 66.0087 26.2694 65.9717 26.3384C65.9347 26.4074 65.9138 26.4838 65.9104 26.562C65.9071 26.6403 65.9215 26.7182 65.9525 26.7901C66.1969 27.383 67.7312 27.1958 67.7312 27.1958C68.3436 27.0796 68.9709 27.0655 69.5879 27.1542C70.1827 27.2634 70.7925 27.2634 71.3874 27.1542C72.0026 27.0654 72.6283 27.0795 73.2389 27.1958C73.2389 27.1958 74.7783 27.383 75.0176 26.7901C75.0486 26.7186 75.0631 26.641 75.0601 26.5631C75.0571 26.4852 75.0366 26.409 75.0001 26.3401C74.9637 26.2711 74.9122 26.2113 74.8495 26.165C74.7868 26.1186 74.7145 26.087 74.6379 26.0724C74.5504 26.0612 74.4615 26.0689 74.3772 26.0949C74.2929 26.1209 74.2151 26.1647 74.1491 26.2232C74.1597 26.1539 74.1842 26.0875 74.2211 26.028C74.258 25.9684 74.3066 25.9169 74.3639 25.8766C74.4212 25.8363 74.4861 25.808 74.5547 25.7933C74.6232 25.7787 74.694 25.7781 74.7628 25.7915ZM66.535 24.429C66.2118 24.43 65.8955 24.3351 65.6263 24.1563C65.357 23.9775 65.1469 23.7228 65.0225 23.4245C64.8981 23.1262 64.865 22.7976 64.9274 22.4805C64.9899 22.1634 65.145 21.8719 65.3732 21.643C65.6013 21.4141 65.8923 21.258 66.2093 21.1946C66.5262 21.1312 66.8548 21.1632 67.1535 21.2867C67.4522 21.4101 67.7076 21.6194 67.8873 21.8881C68.0669 22.1568 68.1628 22.4727 68.1628 22.7959C68.1615 23.2277 67.9897 23.6415 67.6849 23.9473C67.38 24.2532 66.9668 24.4263 66.535 24.429ZM66.535 21.3501C66.2488 21.349 65.9687 21.433 65.7303 21.5912C65.4918 21.7495 65.3057 21.9749 65.1955 22.239C65.0852 22.5031 65.0559 22.794 65.1111 23.0748C65.1663 23.3556 65.3036 23.6137 65.5056 23.8164C65.7076 24.0192 65.9652 24.1574 66.2458 24.2136C66.5264 24.2698 66.8174 24.2415 67.0819 24.1322C67.3464 24.0229 67.5725 23.8376 67.7316 23.5997C67.8907 23.3618 67.9756 23.0821 67.9756 22.7959C67.9756 22.4134 67.824 22.0464 67.554 21.7754C67.2839 21.5044 66.9175 21.3514 66.535 21.3501ZM73.4447 24.1538C73.7133 24.3332 74.029 24.429 74.352 24.429C74.7847 24.4276 75.1993 24.2551 75.5052 23.9492C75.8112 23.6432 75.9837 23.2286 75.9851 22.7959C75.9851 22.4729 75.8893 22.1572 75.7098 21.8886C75.5304 21.6201 75.2753 21.4108 74.9769 21.2872C74.6785 21.1635 74.3502 21.1312 74.0334 21.1942C73.7166 21.2572 73.4256 21.4128 73.1972 21.6412C72.9688 21.8696 72.8133 22.1605 72.7503 22.4773C72.6873 22.7941 72.7196 23.1225 72.8432 23.4209C72.9668 23.7193 73.1762 23.9743 73.4447 24.1538ZM73.5487 21.5937C73.7865 21.4349 74.066 21.3501 74.352 21.3501C74.735 21.3514 75.102 21.5042 75.3729 21.7751C75.6437 22.0459 75.7965 22.4129 75.7978 22.7959C75.7978 23.0819 75.713 23.3614 75.5542 23.5992C75.3953 23.837 75.1695 24.0223 74.9053 24.1317C74.6411 24.2412 74.3504 24.2698 74.0699 24.214C73.7895 24.1582 73.5318 24.0205 73.3296 23.8183C73.1274 23.6161 72.9897 23.3585 72.9339 23.078C72.8782 22.7975 72.9068 22.5068 73.0162 22.2426C73.1256 21.9784 73.311 21.7526 73.5487 21.5937Z" fill="white"/>
<path fill-rule="evenodd" clip-rule="evenodd" d="M17.8893 14.7444C18.0169 14.552 18.0845 14.326 18.0834 14.0952C18.0834 13.7876 17.9613 13.4926 17.7437 13.2751C17.5262 13.0576 17.2312 12.9354 16.9236 12.9354C16.6928 12.9343 16.4668 13.0019 16.2744 13.1295C16.0821 13.2572 15.9319 13.439 15.8431 13.6521C15.7543 13.8652 15.7308 14.0999 15.7756 14.3264C15.8204 14.5528 15.9314 14.7609 16.0947 14.9241C16.2579 15.0874 16.4659 15.1984 16.6924 15.2432C16.9189 15.288 17.1536 15.2645 17.3667 15.1757C17.5798 15.0869 17.7617 14.9367 17.8893 14.7444ZM27.788 13.1434H30.0088V16.4407H31.309V18.4015H29.988V25.4331H27.8244V18.4015H26.5918V16.4459H27.7568C27.7568 16.4459 27.7672 13.1226 27.788 13.1434ZM25.4842 17.7617L24.1424 19.0567C24.1424 19.0567 22.6081 17.5901 21.9476 18.4222C21.2871 19.2544 22.6966 19.6756 22.6966 19.6756C24.8913 20.5078 25.4426 21.6728 25.4426 21.6728C25.6629 22.1321 25.749 22.6442 25.6911 23.1503C25.6331 23.6563 25.4334 24.1357 25.1149 24.5333C25.1149 24.5333 24.5169 25.5215 22.5145 25.6775C21.9057 25.7019 21.3002 25.5762 20.7515 25.3113C20.2028 25.0465 19.7276 24.6507 19.368 24.1588L20.7098 22.7078C21.5264 23.7115 23.2738 24.0756 23.5235 23.2279C23.7329 22.5168 23.4008 22.34 22.0608 21.6263C21.8031 21.4891 21.5082 21.332 21.1727 21.1475C20.6286 20.8893 20.191 20.4502 19.9346 19.9052C19.6782 19.3603 19.619 18.7432 19.7669 18.1594C19.9149 17.5756 20.2609 17.0612 20.7458 16.7042C21.2308 16.3471 21.8247 16.1694 22.4261 16.2015C23.0278 16.1713 23.6269 16.2994 24.1635 16.5732C24.7001 16.847 25.1555 17.2568 25.4842 17.7617ZM0 16.4666V25.4797H2.22077V20.3101C2.22077 20.3101 2.3716 18.2661 4.33234 18.2661C4.33234 18.2661 5.71579 18.3545 5.71579 20.18V25.4589H8.02497V20.18C8.02497 20.18 8.33183 18.2245 10.0221 18.2245C11.7124 18.2245 11.52 20.0032 11.52 20.0032V25.4329H13.7408V19.015C13.7408 19.015 13.5431 16.2222 10.9063 16.2222C8.26942 16.2222 7.75975 17.85 7.75975 17.85C7.48825 17.3605 7.09004 16.953 6.60691 16.6702C6.12376 16.3875 5.57346 16.2399 5.01367 16.243C4.4786 16.2181 3.94565 16.3257 3.4621 16.5561C2.97855 16.7866 2.55932 17.1328 2.24158 17.564V16.4666C2.24158 16.4666 0 16.4406 0 16.4666ZM15.718 16.4875H15.7169L15.7174 16.4872L15.718 16.4875ZM15.718 16.4875H17.9429V25.459H15.7221C15.7221 25.459 15.7735 16.5441 15.718 16.4875ZM32.1883 21.0174C32.1883 16.1806 36.8691 16.2222 36.8691 16.2222C41.9972 16.4406 41.5499 21.5635 41.5499 21.5635L34.2687 21.6103C34.3828 22.2458 34.7293 22.8161 35.2407 23.2102C35.7521 23.6044 36.3919 23.7942 37.0355 23.7427C37.4302 23.7594 37.8234 23.6845 38.1844 23.5239C38.5453 23.3633 38.8641 23.1213 39.1159 22.8169L40.9414 23.7843C39.7296 25.8542 37.0459 25.745 37.0459 25.745C37.0459 25.745 32.1883 25.8542 32.1883 21.0174ZM35.3712 18.5779C34.9291 18.8845 34.5929 19.3207 34.4091 19.8264L39.3135 19.8732C39.1394 19.3641 38.8116 18.9215 38.3754 18.6066C37.9391 18.2916 37.4159 18.1197 36.8779 18.1145C36.3398 18.1094 35.8134 18.2713 35.3712 18.5779ZM42.8759 16.4872H44.8107V17.5274C44.8107 17.5274 45.8508 15.5927 47.692 16.4508L47.0054 18.4011C47.0054 18.4011 45.752 17.387 45.1591 19.5869V25.4119H42.9383C42.9383 25.4119 42.9071 16.4872 42.8759 16.4872Z" fill="white"/>
<path fill-rule="evenodd" clip-rule="evenodd" d="M133.845 14.0952C133.845 14.3245 133.776 14.5488 133.649 14.7395C133.522 14.9302 133.34 15.0789 133.129 15.1667C132.917 15.2545 132.683 15.2774 132.458 15.2327C132.233 15.1879 132.027 15.0775 131.865 14.9153C131.702 14.7531 131.592 14.5464 131.547 14.3214C131.502 14.0964 131.525 13.8633 131.613 13.6513C131.701 13.4394 131.85 13.2583 132.04 13.1308C132.231 13.0034 132.455 12.9354 132.685 12.9354C132.992 12.9354 133.287 13.0576 133.505 13.2751C133.722 13.4926 133.845 13.7876 133.845 14.0952ZM105.037 12.9663H107.341V25.4848H105.021C105.021 25.4848 105.021 12.9507 105.037 12.9663ZM127.266 17.5638V13.0546H129.46V25.49H127.198V24.5694C126.109 25.6584 124.718 25.6267 124.085 25.6122L124.031 25.611C123.991 25.6102 123.954 25.6096 123.922 25.6096C122.871 25.4457 121.914 24.9086 121.227 24.0966C120.54 23.2846 120.169 22.2523 120.182 21.1888C120.182 17.6938 122.32 16.222 124.343 16.222C124.901 16.2004 125.457 16.3106 125.964 16.5437C126.472 16.7768 126.918 17.1263 127.266 17.5638ZM123.404 23.2458C123.861 23.5134 124.387 23.6375 124.915 23.602C125.589 23.5776 126.227 23.2871 126.688 22.7939C127.149 22.3007 127.396 21.6451 127.375 20.9704C127.375 20.4414 127.215 19.9246 126.918 19.4873C126.62 19.05 126.198 18.7123 125.706 18.5182C125.213 18.3241 124.674 18.2825 124.158 18.3988C123.642 18.5151 123.173 18.784 122.812 19.1704C122.45 19.5569 122.214 20.0431 122.133 20.5659C122.051 21.0886 122.129 21.6237 122.356 22.1016C122.583 22.5796 122.948 22.9782 123.404 23.2458ZM100.752 16.4873V17.5639C100.403 17.1266 99.9559 16.7774 99.4473 16.5443C98.9387 16.3113 98.3825 16.2009 97.8235 16.2221C95.8003 16.2221 93.694 17.6939 93.694 21.1889C93.68 22.2519 94.05 23.2842 94.736 24.0963C95.422 24.9084 96.3779 25.4458 97.4282 25.6097C97.4509 25.6097 97.4756 25.61 97.5022 25.6105L97.5918 25.6124H97.5921C98.2251 25.6268 99.6158 25.6585 100.705 24.5695V25.4901H102.972V16.4873H100.752ZM98.3956 23.6021C97.8679 23.6366 97.342 23.5115 96.8863 23.2433C96.4306 22.975 96.066 22.5759 95.84 22.0978C95.614 21.6197 95.537 21.0847 95.619 20.5623C95.7009 20.0399 95.938 19.5541 96.2996 19.1682C96.6611 18.7823 97.1303 18.5139 97.6463 18.3981C98.1623 18.2822 98.7011 18.3242 99.193 18.5185C99.6848 18.7129 100.107 19.0506 100.404 19.4878C100.702 19.9251 100.861 20.4417 100.861 20.9705C100.882 21.6461 100.634 22.3025 100.172 22.7958C99.71 23.2891 99.0711 23.5791 98.3956 23.6021ZM116.011 16.4873V17.5639C115.662 17.1266 115.215 16.7774 114.707 16.5443C114.198 16.3113 113.642 16.2009 113.083 16.2221C111.06 16.2221 108.953 17.6939 108.953 21.1889C108.939 22.2519 109.309 23.2842 109.995 24.0963C110.681 24.9084 111.637 25.4458 112.687 25.6097C112.716 25.6097 112.748 25.6102 112.783 25.6109L112.851 25.6124C113.484 25.6268 114.875 25.6585 115.964 24.5695V25.4901H118.232V16.4873H116.011ZM113.639 23.6021C113.112 23.6366 112.586 23.5115 112.13 23.2433C111.674 22.975 111.31 22.5759 111.084 22.0978C110.858 21.6197 110.781 21.0847 110.863 20.5623C110.945 20.0399 111.182 19.5541 111.543 19.1682C111.905 18.7823 112.374 18.5139 112.89 18.3981C113.406 18.2822 113.945 18.3242 114.437 18.5185C114.928 18.7129 115.35 19.0506 115.648 19.4878C115.945 19.9251 116.104 20.4417 116.104 20.9705C116.126 21.6461 115.878 22.3025 115.416 22.7958C114.954 23.2891 114.315 23.5791 113.639 23.6021ZM133.782 16.4563H131.483C131.468 16.4407 131.468 25.485 131.468 25.485H133.782V16.4563ZM135.821 25.4848V16.4717C135.852 16.5029 138.104 16.4873 138.104 16.4873V17.3194C138.46 16.9539 138.889 16.6673 139.363 16.4783C139.837 16.2892 140.346 16.2019 140.855 16.222C143.612 16.222 143.804 18.9213 143.804 18.9213V25.4692H141.547V20.3984C141.547 18.0268 140.112 18.2868 140.112 18.2868C138.031 18.4792 138.031 20.6324 138.031 20.6324V25.4848H135.821Z" fill="white"/>
</svg>
